:version 1.10
:name ASF
:units
  mass 1
  length 1
  angle deg
:documentation
  ASF file generated by Kaydara
:root
  axis xyz
  order  tx ty tz rx ry rz
  position 0 0 0
  orientation 0 0 0
:bonedata
  begin
    id 1
    name SpineDummy
    direction 0.999998 -0.00179978 1.38929e-006
    length 3.60008
    axis 0 0 0 xyz
  end
  begin
    id 2
    name Spine
    direction 0.964365 0.262802 0.0305839
    length 8.13928
    axis 1.33928 -1.75354 15.2838 xyz
    dof rx ry rz
  end
  begin
    id 3
    name Spine1
    direction 0.811168 0.572065 0.12144
    length 7.14954
    axis 2.2224 -6.9761 35.2157 xyz
    dof rx ry rz
  end
  begin
    id 4
    name Neck
    direction 0 0 0
    length 0
    axis 2.2224 -6.9761 35.2157 xyz
    dof rx ry rz
  end
  begin
    id 5
    name HeadDummy
    direction 0.810939 0.572387 0.121455
    length 3.55534
    axis 2.2224 -6.9761 35.2157 xyz
  end
  begin
    id 6
    name Head
    direction 0.998226 -0.000232542 0.0595419
    length 7.35666
    axis -3.03688 -3.41352 -0.0133467 xyz
    dof rx ry rz
  end
  begin
    id 7
    name R_ClavicleDummy
    direction 0.531669 -0.194489 -0.824319
    length 2.49392
    axis 2.2224 -6.9761 35.2157 xyz
  end
  begin
    id 8
    name R_Clavicle
    direction -0.155119 0.0480802 -0.986725
    length 4.485
    axis -54.2764 80.6538 162.779 xyz
    dof rx ry rz
  end
  begin
    id 9
    name R_UpperArm
    direction -0.955567 0.200068 -0.216484
    length 10.1122
    axis -72.9943 12.5026 168.175 xyz
    dof rx ry rz
  end
  begin
    id 10
    name R_Forearm
    direction -0.61433 0.385743 0.688332
    length 9.39148
    axis -117.015 -43.4982 147.875 xyz
    dof rx ry rz
  end
  begin
    id 11
    name R_Hand
    direction -0.699429 0.0170333 0.714499
    length 3.66324
    axis -45.0303 -36.7097 175.478 xyz
    dof rx ry rz
  end
  begin
    id 12
    name L_ClavicleDummy
    direction 0.40287 -0.36502 0.839319
    length 2.49392
    axis 2.2224 -6.9761 35.2157 xyz
  end
  begin
    id 13
    name L_Clavicle
    direction -0.231271 -0.0726419 0.970174
    length 4.485
    axis 18.4357 -75.9711 -162.563 xyz
    dof rx ry rz
  end
  begin
    id 14
    name L_UpperArm
    direction -0.917494 0.144359 0.370629
    length 10.1122
    axis 56.0417 -21.7544 171.058 xyz
    dof rx ry rz
  end
  begin
    id 15
    name L_Forearm
    direction -0.496786 0.615074 -0.612281
    length 9.39148
    axis 89.8094 37.7546 128.927 xyz
    dof rx ry rz
  end
  begin
    id 16
    name L_Hand
    direction -0.409932 0.64962 -0.640274
    length 3.66324
    axis -0.424369 32.133 128.52 xyz
    dof rx ry rz
  end
  begin
    id 17
    name L_ThighDummy
    direction -1.84081e-006 1.87549e-006 1
    length 3.13049
    axis 0 0 0 xyz
  end
  begin
    id 18
    name L_Thigh
    direction -0.947739 0.307978 0.083308
    length 17.9961
    axis 173.219 -4.77873 161.998 xyz
    dof rx ry rz
  end
  begin
    id 19
    name L_Calf
    direction -0.728814 -0.684427 0.0197583
    length 13.3367
    axis 167.331 -1.13214 -136.799 xyz
    dof rx ry rz
  end
  begin
    id 20
    name L_Foot
    direction -0.9028 0.418719 0.0981191
    length 5.8674
    axis 163.436 11.5135 -155.37 xyz
    dof rx ry rz
  end
  begin
    id 21
    name L_Toe0
    direction -0.35341 0.886259 0.299411
    length 4.75286
    axis 169.316 -17.4222 111.74 xyz
    dof rx ry rz
  end
  begin
    id 22
    name R_ThighDummy
    direction 9.32778e-007 -8.82053e-007 -1
    length 3.13049
    axis 0 0 0 xyz
  end
  begin
    id 23
    name R_Thigh
    direction -0.925064 0.37528 -0.0585023
    length 17.9961
    axis -178.698 3.35385 157.919 xyz
    dof rx ry rz
  end
  begin
    id 24
    name R_Calf
    direction -0.68969 -0.718776 -0.0876886
    length 13.3367
    axis -160.504 5.03065 -133.817 xyz
    dof rx ry rz
  end
  begin
    id 25
    name R_Foot
    direction -0.857405 0.418858 -0.299022
    length 5.8674
    axis -161.328 4.38911 -154.413 xyz
    dof rx ry rz
  end
  begin
    id 26
    name R_Toe0
    direction -0.100745 0.952789 -0.286433
    length 4.75286
    axis 171.683 16.6445 96.0359 xyz
    dof rx ry rz
  end
:hierarchy
  begin
    root SpineDummy L_ThighDummy R_ThighDummy
    SpineDummy Spine
    Spine Spine1
    Spine1 Neck
    Neck HeadDummy R_ClavicleDummy L_ClavicleDummy
    HeadDummy Head
    R_ClavicleDummy R_Clavicle
    R_Clavicle R_UpperArm
    R_UpperArm R_Forearm
    R_Forearm R_Hand
    L_ClavicleDummy L_Clavicle
    L_Clavicle L_UpperArm
    L_UpperArm L_Forearm
    L_Forearm L_Hand
    L_ThighDummy L_Thigh
    L_Thigh L_Calf
    L_Calf L_Foot
    L_Foot L_Toe0
    R_ThighDummy R_Thigh
    R_Thigh R_Calf
    R_Calf R_Foot
    R_Foot R_Toe0
  end

:SAMPLES-PER-SECOND 30
:FULLY-SPECIFIED
:DEGREES
642
root  -7.99769 32.232 -22.6496 18.4047 -5.59396 92.3327
Spine  -13.9081 -10.5696 1.97239
Spine1  -18.6211 38.0106 -20.102
Neck  3.97569e-016 0 -2.38542e-015
Head  44.1717 6.01622 -6.82852
R_Clavicle  0.503969 -16.2947 3.63759
R_UpperArm  15.0578 -16.1355 48.0151
R_Forearm  18.985 24.5163 -22.297
R_Hand  0.321746 3.69913 -3.81015
L_Clavicle  -0.32659 8.80625 1.25492
L_UpperArm  -26.042 -0.75186 28.7403
L_Forearm  -10.6925 -4.2631 -4.95063
L_Hand  0.227368 6.49712 2.36035
L_Thigh  6.07533 3.49566 -23.2748
L_Calf  -17.0649 4.68048 -37.1091
L_Foot  2.21636 11.3357 -1.84941
L_Toe0  0.505156 0.0340371 -6.1361
R_Thigh  1.24649 0.187612 1.31005
R_Calf  5.92675 8.00952 26.1433
R_Foot  2.57897 7.70374 -7.45101
R_Toe0  -0.432079 -0.243343 -13.1393
643
root  -6.81154 33.3541 -21.5928 19.8421 -4.58598 95.0511
Spine  -14.1317 -10.086 -0.705634
Spine1  -19.2441 36.5293 -20.3946
Neck  3.97569e-016 0 -2.38542e-015
Head  42.2235 4.94572 -9.00291
R_Clavicle  0.469082 -15.5226 2.90374
R_UpperArm  13.2156 -17.0071 43.4995
R_Forearm  14.158 26.4241 -24.4136
R_Hand  0.40748 3.88639 -3.20515
L_Clavicle  -0.191023 7.64819 -0.302948
L_UpperArm  -17.6217 2.12802 22.4603
L_Forearm  -11.6374 -5.81674 -6.7675
L_Hand  0.653328 8.76642 5.44852
L_Thigh  7.70459 2.89528 -21.1276
L_Calf  -15.8644 2.82422 -21.5457
L_Foot  1.73453 11.3019 -3.42763
L_Toe0  0.505156 0.0340577 -6.1361
R_Thigh  -0.0368167 -3.67406 2.77351
R_Calf  7.46114 9.69173 32.3216
R_Foot  2.97293 5.93228 -21.3704
R_Toe0  1.91279 -0.555574 -6.26772
644
root  -5.61172 34.028 -20.6634 19.8887 -4.19443 96.4439
Spine  -12.9933 -7.92507 -3.48615
Spine1  -17.5267 33.2234 -18.3549
Neck  3.97569e-016 0 -2.38542e-015
Head  39.636 3.98933 -11.9367
R_Clavicle  0.388359 -14.3656 1.67231
R_UpperArm  12.5707 -16.56 37.3637
R_Forearm  12.6411 27.4717 -25.6206
R_Hand  0.479177 4.86987 -4.01799
L_Clavicle  0.000765626 6.16006 -1.96859
L_UpperArm  -11.8346 3.84965 16.3172
L_Forearm  -12.8082 -7.18252 -8.37856
L_Hand  1.21081 10.74 8.72016
L_Thigh  7.49448 3.29672 -20.2427
L_Calf  -13.392 0.853008 -6.68138
L_Foot  1.64012 12.5195 -4.59164
L_Toe0  0.505156 0.0341354 -6.1361
R_Thigh  2.01078 -5.9801 3.07673
R_Calf  1.69551 10.6015 35.9504
R_Foot  3.08443 2.68737 -27.4744
R_Toe0  3.46317 -0.945438 -4.47675
645
root  -4.3697 34.1413 -19.9024 18.9348 -3.57546 96.6348
Spine  -11.4368 -5.41483 -3.61764
Spine1  -15.6337 28.8912 -17.7757
Neck  3.97569e-016 0 -2.38542e-015
Head  37.3486 3.73831 -14.1878
R_Clavicle  0.269416 -12.3729 0.442808
R_UpperArm  12.2166 -15.0274 29.6462
R_Forearm  14.5882 27.4166 -25.555
R_Hand  0.38858 6.38571 -6.68921
L_Clavicle  0.184294 4.92731 -3.26179
L_UpperArm  -8.22216 4.66114 12.0331
L_Forearm  -12.5977 -9.40521 -11.0383
L_Hand  1.62748 11.6727 11.0058
L_Thigh  5.8998 4.01233 -20.2745
L_Calf  -9.95825 -0.855465 5.8507
L_Foot  1.79863 12.4616 -4.02047
L_Toe0  0.510302 0.0343083 -6.13902
R_Thigh  0.73746 -6.23202 2.68153
R_Calf  -4.80141 10.3071 34.3555
R_Foot  2.80277 4.20339 -20.8859
R_Toe0  0.793992 -0.33919 -13.5366
646
root  -3.09481 33.8238 -19.2713 18.1164 -2.36191 96.714
Spine  -10.1942 -4.14973 -1.58682
Spine1  -14.5314 24.7955 -19.4171
Neck  3.97569e-016 0 -2.38542e-015
Head  35.7608 4.16156 -15.3526
R_Clavicle  0.146914 -9.66141 -0.272062
R_UpperArm  12.3556 -12.513 21.0556
R_Forearm  16.8837 26.2493 -24.2116
R_Hand  0.0550583 6.90913 -9.93712
L_Clavicle  0.265365 4.63695 -3.90909
L_UpperArm  -6.40676 4.67677 10.136
L_Forearm  -11.632 -12.3756 -14.6888
L_Hand  1.57277 10.9942 11.096
L_Thigh  3.81327 4.05436 -18.8793
L_Calf  -9.34172 -2.02257 14.6303
L_Foot  2.07691 11.2394 -2.24875
L_Toe0  0.744902 -0.00197988 -6.26925
R_Thigh  -3.79459 -5.82863 2.71751
R_Calf  -8.73494 8.71597 28.3691
R_Foot  3.17041 10.2265 -10.5301
R_Toe0  -2.08118 -0.286704 -17.8993
647
root  -1.74536 33.1787 -18.7202 18.8707 -1.16685 97.1534
Spine  -9.61546 -4.08412 0.845841
Spine1  -14.1456 22.1015 -21.7472
Neck  3.97569e-016 0 -2.38542e-015
Head  34.2459 4.4584 -15.4954
R_Clavicle  0.067104 -6.89754 -0.428444
R_UpperArm  13.6621 -9.04273 13.4793
R_Forearm  17.7845 24.7432 -22.538
R_Hand  -0.12431 6.13335 -10.9077
L_Clavicle  0.259517 5.15015 -4.17894
L_UpperArm  -6.90512 4.24746 9.73529
L_Forearm  -11.4384 -14.886 -17.8877
L_Hand  1.11051 8.92389 9.01291
L_Thigh  2.24582 3.98404 -14.7321
L_Calf  -11.9467 -2.55781 18.8263
L_Foot  2.37306 10.3597 -0.624169
L_Toe0  -2.32761 0.365007 -4.65503
R_Thigh  -6.476 -5.7026 2.51893
R_Calf  -10.5165 6.71601 21.3806
R_Foot  3.80294 13.1787 -5.1285
R_Toe0  -2.97342 0.0121582 -14.243
648
root  -0.395094 32.0607 -18.1845 20.9718 0.338053 97.3825
Spine  -9.15764 -5.01416 2.48273
Spine1  -13.3265 20.3173 -22.2783
Neck  3.97569e-016 0 -2.38542e-015
Head  31.892 4.11802 -15.1535
R_Clavicle  0.0455761 -4.53604 -0.233687
R_UpperArm  16.7211 -4.6338 8.38352
R_Forearm  17.7935 24.1825 -21.9303
R_Hand  0.0230442 5.5027 -9.00404
L_Clavicle  0.264063 5.22803 -4.28098
L_UpperArm  -9.58885 3.13644 8.30536
L_Forearm  -12.5473 -15.7824 -19.0617
L_Hand  0.641985 6.80993 6.10972
L_Thigh  2.18981 3.64401 -9.98818
L_Calf  -12.6807 -2.36936 17.4202
L_Foot  2.08389 5.66075 3.12082
L_Toe0  -11.6924 1.5683 1.50433
R_Thigh  -6.68198 -6.4218 0.648422
R_Calf  -8.93747 4.8411 15.2105
R_Foot  3.21593 11.1251 0.684093
R_Toe0  -4.07009 0.807116 -4.28332
649
root  0.844967 30.4831 -17.5683 22.258 3.56551 96.9667
Spine  -7.79339 -6.8698 2.76168
Spine1  -10.4502 16.9807 -19.0819
Neck  3.97569e-016 0 -2.38542e-015
Head  28.9899 3.52444 -15.4473
R_Clavicle  0.109753 -2.62789 0.359329
R_UpperArm  21.5735 0.75296 5.66667
R_Forearm  17.0338 24.9073 -22.7169
R_Hand  0.28605 5.99962 -7.15898
L_Clavicle  0.247161 4.45508 -3.6112
L_UpperArm  -12.342 -0.268177 3.45161
L_Forearm  -14.582 -14.56 -17.4669
L_Hand  0.39351 6.13503 4.0092
L_Thigh  3.20545 1.19749 -7.93581
L_Calf  -9.12298 -1.52108 11.1285
L_Foot  1.1309 -4.27922 13.0067
L_Toe0  -4.53979 0.649862 1.58225
R_Thigh  -8.12548 -8.71643 -2.18481
R_Calf  -3.80799 2.91589 9.13825
R_Foot  3.45601 11.6352 15.2583
R_Toe0  -0.469028 -0.205343 -10.1979
650
root  1.95783 28.9292 -16.8073 21.9535 8.0883 95.9651
Spine  -5.27417 -7.55184 1.88287
Spine1  -6.07975 10.4685 -13.0639
Neck  3.97569e-016 0 -2.38542e-015
Head  27.3553 3.18551 -16.7533
R_Clavicle  0.282189 -1.55512 1.38546
R_UpperArm  26.9123 6.32312 4.81396
R_Forearm  15.537 25.3217 -23.1734
R_Hand  0.265573 6.88423 -8.21513
L_Clavicle  0.0483497 4.69999 -1.81307
L_UpperArm  -12.4074 -6.013 -4.29083
L_Forearm  -17.0084 -11.0804 -13.0845
L_Hand  0.311468 6.93428 3.04913
L_Thigh  2.86456 -3.57376 -9.13667
L_Calf  -5.66048 -0.701754 5.14526
L_Foot  1.4687 -8.10196 24.9457
L_Toe0  0.485225 -0.0448009 -1.81289
R_Thigh  -12.8903 -12.2053 -2.70684
R_Calf  1.29049 0.68787 2.1755
R_Foot  6.87048 17.8694 26.0749
R_Toe0  -1.06204 -0.253686 -17.5073
651
root  2.77761 27.9696 -16.0059 22.8463 12.43 94.8561
Spine  -3.17397 -6.27808 0.777321
Spine1  -3.17323 3.0472 -7.12092
Neck  3.97569e-016 0 -2.38542e-015
Head  28.4696 3.02762 -17.5987
R_Clavicle  0.459946 -2.11405 2.35741
R_UpperArm  30.5952 9.86169 5.82738
R_Forearm  15.3703 23.1839 -20.8696
R_Hand  -0.107803 7.2897 -11.5658
L_Clavicle  -0.226089 7.55017 0.173928
L_UpperArm  -9.90124 -9.74159 -10.7031
L_Forearm  -18.6016 -5.64457 -6.56771
L_Hand  0.293579 7.86021 2.71638
L_Thigh  1.50057 -8.33722 -10.8779
L_Calf  -4.28047 -0.0720093 0.854287
L_Foot  3.26053 -6.9934 32.7164
L_Toe0  0.544652 0.0360689 -6.53216
R_Thigh  -17.8158 -15.8016 0.0719968
R_Calf  5.78129 -2.43057 -7.51709
R_Foot  9.55652 22.978 23.2753
R_Toe0  2.31149 -0.442059 -15.0594
652
root  3.05483 27.8114 -15.4074 27.9635 15.646 94.6356
Spine  -2.63402 -5.71409 -0.568549
Spine1  -2.77567 -0.508687 -2.74859
Neck  3.97569e-016 0 -2.38542e-015
Head  31.6496 2.57555 -16.2819
R_Clavicle  0.508928 -4.48344 2.69962
R_UpperArm  32.0849 9.31849 9.06001
R_Forearm  17.6232 17.8387 -15.5352
R_Hand  -0.404635 7.78691 -14.2174
L_Clavicle  -0.362154 11.6772 0.976831
L_UpperArm  -8.84705 -7.26197 -11.4046
L_Forearm  -17.9067 1.12398 1.28602
L_Hand  0.303453 7.95416 2.78043
L_Thigh  2.11587 -11.1484 -12.1809
L_Calf  -0.980814 0.215695 -0.685233
L_Foot  5.08065 -4.09138 33.3442
L_Toe0  0.505156 0.034446 -6.1361
R_Thigh  -18.6566 -18.6046 2.55503
R_Calf  9.37734 -5.37571 -16.8671
R_Foot  6.68571 19.3927 9.63569
R_Toe0  12.4349 -2.2751 -9.34532
653
root  2.77158 28.5059 -15.1317 36.6115 16.9026 95.8698
Spine  -2.6909 -7.51836 -2.59856
Spine1  -3.03723 1.25935 -0.552877
Neck  3.97569e-016 0 -2.38542e-015
Head  34.814 1.55711 -13.0484
R_Clavicle  0.477372 -8.17124 2.58333
R_UpperArm  32.8269 5.13058 14.7985
R_Forearm  19.6023 10.5404 -8.92065
R_Hand  -0.362997 9.53906 -14.6196
L_Clavicle  -0.425459 14.9323 0.519641
L_UpperArm  -11.0927 0.21375 -6.64902
L_Forearm  -14.8964 8.61952 10.0728
L_Hand  0.318451 7.40395 3.01415
L_Thigh  5.85128 -11.7149 -14.5006
L_Calf  3.86555 -0.488231 4.46576
L_Foot  6.49143 -0.434938 30.4378
L_Toe0  0.49253 0.0370422 -6.25143
R_Thigh  -14.6145 -18.8809 1.91235
R_Calf  8.15449 -6.34255 -20.1327
R_Foot  2.54605 8.46009 -3.70378
R_Toe0  19.3518 -6.18772 -1.18281
654
root  2.19784 29.8857 -15.0602 46.1981 15.2984 97.9399
Spine  -2.47788 -9.71892 -4.72703
Spine1  -2.6943 5.42551 -1.16988
Neck  3.97569e-016 0 -2.38542e-015
Head  36.5723 0.429751 -9.59736
R_Clavicle  0.467492 -12.6237 2.65914
R_UpperArm  33.3401 0.215181 22.1442
R_Forearm  18.0087 2.35054 -1.98103
R_Hand  -0.072241 11.4069 -13.4651
L_Clavicle  -0.487713 17.233 0.10187
L_UpperArm  -13.4022 7.48658 0.374298
L_Forearm  -11.5463 16.381 19.8837
L_Hand  0.314164 6.17396 3.24472
L_Thigh  8.92113 -9.92269 -15.9135
L_Calf  7.16918 -1.84312 14.1355
L_Foot  5.73085 1.89913 22.4591
L_Toe0  0.708227 1.51971e-005 -5.23039
R_Thigh  -8.26498 -15.1454 -0.310982
R_Calf  1.64222 -5.1729 -16.3817
R_Foot  1.42658 2.43988 -8.37278
R_Toe0  13.013 -6.42296 7.30694
655
root  1.60834 31.3131 -15.0722 56.1557 11.7325 100.02
Spine  -2.6112 -10.7888 -6.30368
Spine1  -2.69782 8.78322 -3.62411
Neck  3.97569e-016 0 -2.38542e-015
Head  36.8323 -0.444982 -7.49925
R_Clavicle  0.464014 -16.8101 2.98782
R_UpperArm  32.6995 -2.8011 29.2983
R_Forearm  13.7834 -6.66721 5.54606
R_Hand  0.129047 10.3595 -11.7008
L_Clavicle  -0.528886 18.8296 0.253644
L_UpperArm  -13.3581 10.3642 7.72987
L_Forearm  -9.63653 23.603 30.0226
L_Hand  0.264158 3.80904 3.36353
L_Thigh  4.58582 -7.20114 -13.0522
L_Calf  5.67161 -2.5323 19.1907
L_Foot  2.76389 3.03966 8.73073
L_Toe0  0.19477 0.0284898 0.147718
R_Thigh  -2.56516 -10.0732 -0.621219
R_Calf  -5.82932 -3.22373 -10.1236
R_Foot  2.28532 6.66934 -6.60304
R_Toe0  -2.5369 0.922952 2.53816
